<svg xmlns="http://www.w3.org/2000/svg" style="transform:rotate(0deg);transition:.3s" viewBox="0 0 1440 100"><defs><linearGradient id="a" x1="0" x2="0" y1="1" y2="0"><stop offset="0%" stop-color="rgba(62, 114.243, 243, 1)"/><stop offset="100%" stop-color="rgba(11, 230.204, 255, 1)"/></linearGradient></defs><path fill="url(#a)" d="M0 20h26.7c26.6 0 80.3 0 133.3 5 53.3 5 107 15 160 23.3C373.3 57 427 63 480 66.7c53.3 3.3 107 3.3 160 5C693.3 73 747 77 800 75c53.3-2 107-8 160-10 53.3-2 107 2 160-1.7C1173.3 60 1227 50 1280 50c53.3 0 107 10 160 15 53.3 5 107 5 160 1.7 53.3-3.7 107-9.7 160-20 53.3-9.7 107-23.7 160-20 53.3 3.3 107 23.3 160 25 53.3 1.3 107-14.7 160-15 53.3.3 107 16.3 160 23.3 53.3 7 107 3 160-6.7 53.3-10.3 107-26.3 160-31.6 53.3-4.7 107 1.3 160 5 53.3 3.3 107 3.3 160 0 53.3-3.7 107-9.7 160-15C3253.3 7 3307 3 3360 5c53.3 2 107 8 160 23.3 53.3 14.7 107 38.7 160 35C3733.3 60 3787 30 3813 15l27-15v100H0Z" style="transform:translate(0,0);opacity:1"/></svg>