<svg xmlns="http://www.w3.org/2000/svg" width="128" height="128" baseProfile="basic" viewBox="0 0 64 64"><ellipse cx="32" cy="61" opacity=".3" rx="20" ry="3"/><path fill="#ffce29" d="M54 20v24c0 2.25-.74 4.32-2 5.99V50a10.007 10.007 0 0 1-8 4H20c-5.52 0-10-4.48-10-10V20a10.007 10.007 0 0 1 4-8h.01c1.67-1.26 3.74-2 5.99-2h24c5.52 0 10 4.48 10 10z"/><path fill="#fff" d="M14.01 12H14a10.007 10.007 0 0 0-4 8v12a5 5 0 0 0 5-5v-7a5.014 5.014 0 0 1 1.879-3.905 4.65 4.65 0 0 0 .142-.103A4.905 4.905 0 0 1 20 15h6a5 5 0 0 0 5-5H20c-2.25 0-4.32.74-5.99 2z" opacity=".3"/><path d="M54 44V28a5 5 0 0 0-5 5v11c0 2.757-2.243 5-5 5H33a5 5 0 0 0-5 5h16c5.523 0 10-4.477 10-10z" opacity=".15"/><path fill="none" stroke="#fff" stroke-linecap="round" stroke-linejoin="round" stroke-miterlimit="10" stroke-width="3" d="M13.5 23.5V20a6.536 6.536 0 0 1 2.414-5.053l.204-.152"/><g fill="#9c34c2"><path d="M28.441 47.566c-.453.013-.807-.106-1.061-.36-.253-.253-.38-.58-.38-.981 0-.306.09-.574.271-.802.179-.227.443-.352.791-.38l.58-.041c1.069-.065 1.602-.628 1.602-1.682v-8.632c0-.507.134-.898.401-1.172.267-.274.647-.411 1.143-.411 1.04 0 1.561.528 1.561 1.583v8.593c0 2.657-1.402 4.072-4.207 4.246l-.701.039zM41.219 47.626c-.854 0-1.71-.093-2.564-.28-.854-.186-1.596-.46-2.223-.821-.373-.2-.608-.469-.701-.81a1.497 1.497 0 0 1 .06-.993c.134-.319.347-.546.641-.68.293-.134.647-.101 1.061.099.535.308 1.13.535 1.783.681a8.84 8.84 0 0 0 1.943.22c.962 0 1.653-.15 2.073-.45.421-.302.631-.678.631-1.133 0-.386-.147-.694-.44-.921-.295-.227-.808-.421-1.544-.58l-2.262-.481c-2.523-.535-3.786-1.843-3.786-3.926 0-.893.241-1.679.722-2.354.481-.673 1.151-1.198 2.013-1.571.861-.373 1.858-.561 2.994-.561.747 0 1.482.09 2.202.271a6.393 6.393 0 0 1 1.904.791c.333.2.541.461.621.781.08.321.057.628-.07.923-.127.293-.341.5-.641.619-.302.121-.672.075-1.112-.14a5.706 5.706 0 0 0-1.403-.5 7.232 7.232 0 0 0-1.522-.16c-.841 0-1.491.163-1.953.491-.46.328-.691.751-.691 1.271 0 .388.14.701.422.942.28.24.768.434 1.462.58l2.262.481c2.59.561 3.886 1.83 3.886 3.806 0 .88-.238 1.653-.711 2.313-.474.662-1.143 1.175-2.003 1.542-.86.366-1.878.55-3.054.55z"/></g></svg>